<?xml version="1.0" encoding="utf-8"?>
<!-- Generator: Adobe Illustrator 19.2.1, SVG Export Plug-In . SVG Version: 6.00 Build 0)  -->
<svg version="1.1" id="svglogo" xmlns="http://www.w3.org/2000/svg" xmlns:xlink="http://www.w3.org/1999/xlink" x="0px" y="0px"
	 viewBox="0 0 472.1 102.9" style="enable-background:new 0 0 472.1 102.9;" xml:space="preserve">
<g>
	<path d="M33.9,61.5l-1.1,0.4c0,0-0.2,0-0.6-0.1c-0.1,0-0.2,0-0.2,0c-0.3,0-0.6,0-0.9,0.1c-0.1-0.2-0.4-0.4-0.8-0.5l-1-0.4
		c-0.6,0.2-0.9,0.3-1,0.3c-0.3,0-0.6-0.2-1.1-0.6l0.1-0.8C26.4,59.5,25,59,22.9,58c-0.3,0.2-0.6,0.3-1.1,0.5c0,0-0.4-0.4-1.2-1
		c-0.3-0.2-0.4-0.4-0.4-0.6c0-0.1,0-0.2,0-0.3c-0.3-0.3-0.5-0.6-0.6-1c0-0.1-0.9-0.8-2.6-1.9c-0.6-0.4-1.4-1.1-2.4-2.2
		c0.1-0.4,0.3-0.7,0.6-0.9c0.2-0.2,1.1-0.9,2.5-2.1c0.8-0.5,1.3-0.8,1.4-0.9c0.1-0.2,0.3-0.5,0.4-1c0.5,0,0.8-0.1,0.9-0.1
		c0.1-0.1,0.4-0.3,0.7-0.6c0.2-0.2,0.5-0.4,0.9-0.7c1-0.6,1.5-1.2,1.5-1.6c0-0.3,0-0.6-0.1-1c0.2-0.2,0.7-0.3,1.3-0.4
		c0.3,0,0.7-0.4,1.2-1.1c0.7-0.1,1.2-0.3,1.5-0.6c0.6-0.6,0.9-1.2,0.9-1.9c0-0.2,0-0.4-0.1-0.7c-0.6-0.3-1-0.6-1.4-0.9
		c-0.8,0.3-1.7,1-2.7,1.9c-0.3,0.3-1.1,1.2-2.3,2.7l-2.1,2.2l-0.8,0.9l-1.3,1.3l-3.3,3.4L12,50.7c-0.9,0.7-1.4,1.1-1.7,1.2
		c-0.3-0.6-0.5-1.1-0.5-1.4c0,0,0.1-0.7,0.3-2l-2-1.3l2.2-2.8L10.1,44C10,43.8,9.9,43.1,9.9,42v0c0-0.3,0-0.6,0.1-0.9
		c0-0.3,0.1-0.5,0.1-0.7c-0.6-0.7-0.8-1.3-0.8-2.1c0-0.3,0-0.5,0.1-0.6c0.2-0.7,0.3-1.2,0.3-1.6v-9.8c-0.2-1.2-0.2-1.8-0.2-1.9
		c0-0.1,0-0.2,0-0.4c0.1-0.6,0.1-0.9,0.1-1.1c0-0.2-0.2-0.3-0.7-0.4c-0.1,0-0.2-0.1-0.4-0.2l-0.1-3.1l1.1-0.3
		c-1.9-1.3-2.8-2.3-2.8-3c0-0.5,0.3-0.9,1-1.2c1.2-0.5,1.8-0.9,1.7-1.1L9.2,8.9V8.7V8.4c0-0.1,0-0.2,0-0.2c0.3-1.1,0.5-1.7,0.5-1.7
		c0-0.2-0.1-0.4-0.4-0.4c-0.5,0.3-1.2,0.6-2,0.8C5.6,8,4.5,8.7,4,9c0,0.5,0.1,0.9,0.2,1.1l0,0.1l-0.3,1.3l0,0.1
		c0.1,0.2,0.2,0.6,0.2,1.1c0,0.6,0,1.2,0,1.8c0,0.3,0,0.6,0,0.8c0,0.1,0.1,1.1,0.3,2.9l-0.1,1.2c0.2,0.5,0.3,0.8,0.3,0.9
		c0,0.1,0,0.3,0,0.5c0.5,0.3,0.7,0.5,0.7,0.8L5.4,22C5.1,23.6,5,24.5,5,24.7c0,0.2,0.2,1.7,0.7,4.5c0,0,0,0.2-0.1,0.5
		c0.7,0.5,1.1,0.9,1.1,1.2c0,0.4-0.4,0.9-1.1,1.5l0.3,2.3l0.3,5.9l0.9,0.7v0.2l-1,0.8c0,0.5,0,0.9,0,1.2c0,0.5,0,0.9,0.1,1.3
		c0.1,0.7,0.1,1.1,0.1,1.2v0c0,0.3,0,0.5-0.1,0.7l0,0.3c0,0.2,0.5,0.5,1.4,1.1c0.4,0.3,0.7,0.5,0.7,0.8c0,0.4-0.6,0.9-1.9,1.3l1,0.6
		c-0.6,0.9-0.8,1.6-0.8,2.1c0,0.3,0.3,0.7,0.9,1.2l-0.4,1l-0.7-0.1l-0.2,5c-0.1,1.6-0.3,3.2-0.7,4.9v0l0.4,1
		c0.8-0.4,1.7-0.7,2.6-0.9c1-0.2,1.5-0.4,1.5-0.4c0,0,0.2-0.2,0.6-0.4c0-0.4,0-0.7,0.1-0.9l0.1-0.6l-0.4-3.2c0-1.9,0-3-0.1-3.4
		c-0.1-0.3-0.1-0.6-0.1-0.8c0-0.4,0.2-0.6,0.5-0.6c0.1,0,0.6,0.3,1.6,0.9c1.5,1.2,2.7,2.3,3.4,3l1.2,0.4l1.9,1.6
		c0.8,0.5,1.4,1,1.9,1.4c0.4,0.3,0.6,0.5,0.8,0.5c0,0,0.4-0.1,1.3-0.2c0,0,0.1,0,0.1,0c0.3,0,0.5,0.1,0.7,0.4
		c0.1,0.1,0.1,0.3,0.1,0.4c0,0.2,0,0.5-0.1,0.8c0.2,0.1,0.7,0.4,1.4,0.7c0.4,0.2,1.3,0.5,2.7,0.8c0.8,0.3,1.3,0.5,1.5,0.5
		c0.1,0,0.5-0.1,1.2-0.4c0.9,0,1.4-0.1,1.7-0.2c0.9-0.4,1.5-1,1.8-1.8c0.4-1,0.6-1.5,0.6-1.6c0,0,0-0.1,0-0.1L33.9,61.5z"/>
	<path d="M65.8,61.1c-0.4-0.6-0.6-1-0.6-1.4c0-0.4,0.2-0.8,0.6-1.3c-0.3-1.1-0.4-2.1-0.4-2.9c0-0.3,0-0.5,0-0.8
		c0.1-0.6,0.1-1,0.1-1.2s0-0.5,0-0.8c-0.6-0.3-0.9-0.6-0.9-0.9c0-0.3,0.3-0.6,0.8-0.9c0-0.4-0.1-1.3-0.1-2.7
		c-0.1-0.6-0.2-1.2-0.3-1.7h-0.1c-0.3-0.3-0.5-0.9-0.8-1.9l0.1-1.4c0-0.1,0-0.2-0.1-0.5l-0.9-0.6c0-0.5-0.2-0.9-0.5-1.2
		c-0.4,0.1-0.8,0.2-1,0.3c-0.4,0.2-0.6,0.3-0.8,0.3c-0.3,0-0.4-0.2-0.4-0.5c0-0.2,0.2-0.5,0.6-0.9c-0.5-0.5-0.9-0.8-1.3-0.8
		c-0.4-0.1-1-0.2-1.9-0.4l-0.8-0.1c-0.9-0.3-1.6-0.5-1.9-0.5c-0.3,0-1,0-2.2,0l-1.2,0.2l-0.7,0l-1.6,0.5h-1.4l-1.4,0.6l-2.3,0.7
		l-1.1,0.6l-1.7,0.4c-0.1,0-0.4,0.2-0.8,0.6c-0.2,0.1-0.4,0.4-0.8,0.7c0.3,0.4,0.6,0.7,0.8,0.9c0.2,0.1,0.7,0.3,1.5,0.5
		c0.7,0.3,1.2,0.4,1.3,0.4c0.4,0,0.7-0.1,1-0.2c0.1,0,0.3-0.3,0.6-0.7l0.5-0.3c0.8-0.6,1.8-1.2,3-1.7c0.5-0.2,0.9-0.4,1.1-0.7
		c0.3-0.3,0.7-0.6,1.2-0.8l0.7,0.8c0.4,0,0.6-0.1,0.8-0.1c0.2,0,0.5,0.1,1,0.2h1.1c1.5,0.2,2.4,0.4,2.7,0.5c0.2,0.1,0.8,0.9,1.8,2.1
		c0.6,0,0.9,0,1.1,0.1c1.5,0.4,2.2,0.7,2.2,0.7l-1.8,2.3c0.2,0.6,0.3,1,0.3,1.1c0,0.6-0.2,1-0.6,1.3c-0.2,0.1-0.7,0.2-1.5,0.3
		l-2.8,0.4h-1.4l-0.6,0.1l-0.7,0.1l-1.1,0.4c-1.2,0.1-1.9,0.2-2.1,0.2c-0.3,0.1-0.9,0.4-1.8,0.8c-1.2,0.3-1.9,0.4-2.1,0.6
		c-0.3,0.2-0.5,0.5-0.8,0.9c-0.3,0-0.5-0.1-0.7-0.1c-0.2,0-0.6,0.2-1.2,0.6c-1.1,0.5-1.9,0.8-2.2,1.1c-0.4,0.3-1.1,1.1-2.3,2.2
		c-0.4,0.8-0.7,1.4-1,1.8c-0.3,0.5-0.5,0.8-0.5,1v0l0.4,1.5c0.1,0.6,0.2,1,0.3,1.3l0.8,0.3c0.2,0.6,0.5,1.1,0.8,1.3
		c0.4,0.3,1,0.6,1.8,0.9l1.1,0.5l1.5,0.1c1.5,0.3,2.4,0.5,2.7,0.5c0.3,0,0.8-0.1,1.5-0.4l1.5,0.1l2.8-0.6l0.7-0.1l1.3-0.7l1.3,0.1
		c0,0,0.3-0.1,0.9-0.2l1-0.2c1.3-0.6,2.3-0.9,3-1.1l-0.5,2.4c0.3,0.3,0.5,0.4,0.8,0.4c0.1,0,0.6-0.2,1.4-0.5l0.8-0.2l1.3-0.6
		c0.5-0.2,0.9-0.4,1.1-0.6c0.1-0.3,0.3-0.6,0.6-0.9c-0.2-0.5-0.3-0.8-0.4-0.9C65.9,61.4,65.9,61.2,65.8,61.1z M61,58.7l-0.2,1.1
		c-0.6,0.2-1,0.4-1.2,0.6c-0.1,0.1-0.3,0.4-0.7,1.1l-1.5,0.6l-1.3,0.6l-0.8-0.1l-0.9,0.4l-1.9,0.7l-1-0.2c-0.5,0.3-0.7,0.5-0.8,0.5
		c-0.2,0-0.5-0.1-0.8-0.4C49.3,63.8,49,64,48.8,64c-0.1,0-0.3,0-0.5,0c-0.2,0-0.6-0.1-1.1-0.1c-0.3-0.4-0.5-0.6-0.6-0.7
		c-0.1,0-0.5-0.2-1.4-0.4c-0.3,0-0.9-0.4-1.7-0.9l-1,0.8l-0.4-0.7c0-0.1,0.1-0.4,0.4-0.8c0.2-0.3,0.3-0.6,0.5-0.9
		c-0.3-0.4-0.5-0.6-0.6-0.8l-0.2-1.9C42.1,57.2,42,57.1,42,57c0-0.1,0-0.2,0.1-0.4c0.7-0.2,1.1-0.4,1.2-0.6c0.4-0.6,0.7-1,0.8-1.1
		c0.7-0.6,1.7-1.2,3.2-1.9c1.1-0.4,1.7-0.6,1.8-0.7c0.6-0.4,1-0.6,1.1-0.6c0,0,0,0,0.1,0c0.5,0.1,0.8,0.2,0.8,0.2
		c0.2,0,0.4-0.1,0.7-0.2c0.4-0.1,1.1-0.2,2.1-0.2l0.8-0.2c0.6,0.4,1,0.6,1.1,0.6h0.7l1.1,0l1.4,0.1l1.5,0c0.3,0.3,0.6,0.4,0.8,0.4
		c-0.2,0.5-0.3,0.9-0.3,1.2c0,0.1,0,0.2,0,0.4c0,0.4,0,1,0.1,1.6v0.6c0,0.2,0,0.5,0,0.9c0.1,0.3,0.4,0.5,0.7,0.7
		C61.6,58.2,61.4,58.5,61,58.7z"/>
	<path d="M81.3,60.6l0.1-1.5l-0.6-5.7l0.1-0.2L79.8,53c0-0.6,0-0.9,0-0.9c0.1-1,0.2-1.6,0.2-1.7c0-0.3,0-0.8-0.1-1.3l0.6-0.4
		l-0.1-7.9v-2.2L80,38.3l-0.8-1.7c0.5-0.4,0.7-0.8,0.7-1.2c0-0.1,0-0.2,0-0.2c-0.3-1.1-0.5-1.7-0.5-1.8c0-0.2,0.1-0.4,0.2-0.7
		c0.4-0.7,0.6-1.1,0.6-1.4V27l0.2-4.4c0-0.2,0-0.5,0-1c-0.3-0.3-0.5-0.5-0.5-0.8c0-0.2,0-0.6,0.1-1.3c0.5-0.5,0.7-1,0.7-1.4
		c0-0.3-0.1-0.7-0.2-1.3l-0.7-0.1l0.2-1.1c0.4-0.4,0.6-0.7,0.6-0.9c0-0.1,0-1.1,0.1-3l0.1-3l-0.4-1.2c0,0,0-0.1,0-0.2
		c0-0.2,0-0.3,0-0.5V6.8c0-0.6-0.3-0.9-0.8-0.9c-0.1,0-0.2,0-0.3,0c-0.5,0.6-1.1,1.1-1.8,1.4C77.4,7.3,77,7.6,76.4,8
		c-0.2,0.2-0.5,0.3-0.9,0.4c0,0.5-0.1,0.9-0.2,1.2c-0.1,0.6-0.2,1-0.2,1.2c0,0.2,0.5,0.9,1.4,2.1l1.8,2.4l-2.6,1.9l0.1,0.2
		c0,0,0.1,0.2,0.2,0.7c0.1,0.4,0.2,0.6,0.2,0.7c0,0.1,0,0.2-0.1,0.3c-0.3,0.5-0.5,0.9-0.5,1.1l0,1.4c0,0.5,0,0.9,0.1,1.3
		c0.4,0.2,0.6,0.5,0.6,0.7c0,0.2-0.1,0.6-0.2,1.2c0.3,0.2,0.7,0.4,1.2,0.6c-0.2,0.5-0.4,1-0.6,1.4c-0.1,0.2-0.3,0.5-0.6,0.7v7.7
		l0.7,0.9c-0.1,0.4-0.2,1-0.2,1.7c-0.4,0.8-0.6,1.3-0.6,1.6c0,0.3,0,0.6,0.1,1c0.1,1,0.1,1.9,0.1,2.7c0,0.3,0,0.5,0,0.6
		c-0.3,1-0.4,1.5-0.4,1.5c0,0.2,0,0.5,0.1,1.1c0,0.2,0,0.6,0,1.2l0.8,0.4c0,0.6-0.2,1.2-0.4,1.9c-0.4,0.9-0.5,1.4-0.5,1.5
		c0,0.1,0,0.2,0.1,0.4c0.4,0.8,0.6,1.2,0.6,1.3l-0.3,0.9L76,55L76,55.4l2.8,2l-3,1.9L76,60L75.8,61l-0.1,0.8c-0.2,0.7-0.3,1-0.3,1.1
		c0,0.2,0,0.4,0.1,0.6c0.1,0.5,0.1,0.9,0.1,1.1c0,0.2,0,0.5,0,0.9c0.2,0.1,0.4,0.1,0.5,0.1c0.4,0,0.8-0.2,1.4-0.7c0.4,0,0.6,0,0.7,0
		c0.1,0,0.3-0.2,0.8-0.5c0.8-0.5,1.5-0.9,2-1.1c-0.1-0.2-0.2-0.3-0.2-0.5c0-0.1,0.2-0.5,0.7-1.2L81.3,60.6z"/>
	<path d="M95.7,60.6l0.1-1.5l-0.6-5.7l0.1-0.2L94.2,53c0-0.6,0-0.9,0-0.9c0.1-1,0.2-1.6,0.2-1.7c0-0.3,0-0.8-0.1-1.3l0.6-0.4
		l-0.1-7.9v-2.2l-0.4-0.3l-0.8-1.7c0.5-0.4,0.7-0.8,0.7-1.2c0-0.1,0-0.2,0-0.2c-0.3-1.1-0.5-1.7-0.5-1.8c0-0.2,0.1-0.4,0.2-0.7
		c0.4-0.7,0.6-1.1,0.6-1.4V27l0.2-4.4c0-0.2,0-0.5,0-1c-0.3-0.3-0.5-0.5-0.5-0.8c0-0.2,0-0.6,0.1-1.3c0.5-0.5,0.7-1,0.7-1.4
		c0-0.3-0.1-0.7-0.2-1.3l-0.7-0.1l0.2-1.1c0.4-0.4,0.6-0.7,0.6-0.9c0-0.1,0-1.1,0.1-3l0.1-3L95,7.5c0,0,0-0.1,0-0.2
		c0-0.2,0-0.3,0-0.5V6.8c0-0.6-0.3-0.9-0.8-0.9c-0.1,0-0.2,0-0.3,0c-0.5,0.6-1.1,1.1-1.8,1.4c-0.3,0.1-0.7,0.4-1.3,0.7
		c-0.2,0.2-0.5,0.3-0.9,0.4c0,0.5-0.1,0.9-0.2,1.2c-0.1,0.6-0.2,1-0.2,1.2c0,0.2,0.5,0.9,1.4,2.1l1.8,2.4l-2.6,1.9l0.1,0.2
		c0,0,0.1,0.2,0.2,0.7c0.1,0.4,0.2,0.6,0.2,0.7c0,0.1,0,0.2-0.1,0.3C90.2,19.5,90,19.8,90,20l0,1.4c0,0.5,0,0.9,0.1,1.3
		c0.4,0.2,0.6,0.5,0.6,0.7c0,0.2-0.1,0.6-0.2,1.2c0.3,0.2,0.7,0.4,1.2,0.6c-0.2,0.5-0.4,1-0.6,1.4c-0.1,0.2-0.3,0.5-0.6,0.7v7.7
		l0.7,0.9c-0.1,0.4-0.2,1-0.2,1.7c-0.4,0.8-0.6,1.3-0.6,1.6c0,0.3,0,0.6,0.1,1c0.1,1,0.1,1.9,0.1,2.7c0,0.3,0,0.5,0,0.6
		c-0.3,1-0.4,1.5-0.4,1.5c0,0.2,0,0.5,0.1,1.1c0,0.2,0,0.6,0,1.2l0.8,0.4c0,0.6-0.2,1.2-0.4,1.9c-0.4,0.9-0.5,1.4-0.5,1.5
		c0,0.1,0,0.2,0.1,0.4c0.4,0.8,0.6,1.2,0.6,1.3l-0.3,0.9L90.5,55l-0.1,0.5l2.8,2l-3,1.9l0.1,0.7L90.2,61l-0.1,0.8
		c-0.2,0.7-0.3,1-0.3,1.1c0,0.2,0,0.4,0.1,0.6c0.1,0.5,0.1,0.9,0.1,1.1c0,0.2,0,0.5,0,0.9c0.2,0.1,0.4,0.1,0.5,0.1
		c0.4,0,0.8-0.2,1.4-0.7c0.4,0,0.6,0,0.7,0c0.1,0,0.3-0.2,0.8-0.5c0.8-0.5,1.5-0.9,2-1.1c-0.1-0.2-0.2-0.3-0.2-0.5
		c0-0.1,0.2-0.5,0.7-1.2L95.7,60.6z"/>
	<path d="M109.7,42.5c0-0.2,0.1-0.7,0.2-1.6c0.1-1.1,0.3-1.9,0.6-2.5l-1.1-1.1c-1.1,0.4-2.5,1.2-4,2.4c-0.7,0.6-1.1,1-1.1,1.3
		c0.4,0.2,0.6,0.5,0.7,0.8c0.2,2.3,0.3,3.4,0.3,3.5c0,0.1,0,0.4-0.1,0.7c0.5,0,1-0.1,1.4-0.1c0.5,0,0.9,0.2,1.3,0.5
		c0,0,0.1,0.1,0.1,0.1c0,0.2-0.8,0.5-2.3,0.7l0.1,0.8v0.2v0.3c0,0.3,0.1,0.6,0.4,0.9c-0.2,0.4-0.4,0.7-0.4,1c0,0.1,0,0.3,0,0.5
		c0,0.2,0,0.4,0,0.5c0,0.3,0,0.6-0.1,1.2l0.6,0.5c0.1,0.4,0.1,0.8,0.2,1c0.1,0.5,0.2,0.9,0.2,1.1c0,0.1-0.1,0.4-0.2,0.8
		c-0.1,0-0.3,0-0.4,0c-0.4,0-0.5,0.2-0.6,0.6l0,0.6l-0.2,3.4l0,1.7c-0.2,0.8-0.4,1.3-0.4,1.5c0,0.2-0.1,0.6-0.2,1.2
		c0.3,0.3,0.6,0.4,0.8,0.4c0.2,0,0.4,0,0.6-0.1c0.2-0.1,0.8-0.6,2-1.5c0.8-0.5,1.2-0.8,1.3-0.9c0.4-0.4,0.6-0.8,0.6-1.3
		c0-0.1-0.1-0.5-0.2-1.2l-0.1-1.5c-0.3-1.3-0.4-2.1-0.5-2.4l0.2-6.7c0-0.4,0-0.6,0-0.8l0-0.4l-0.1-1.7c0,0,0.1-0.2,0.2-0.5
		c-0.5-0.5-0.8-1.1-0.8-1.7l0.6-0.8V42.5z"/>
	<path d="M111.7,20.7c-0.4-0.4-0.7-0.5-0.8-0.5c-0.2,0-0.5,0.1-0.9,0.4c-0.2,0.1-0.8,0.9-1.6,2.1c-0.4,0.4-0.7,0.5-0.7,0.6
		c-0.3,0.4-0.6,0.7-0.9,0.9c-1.2,1-1.8,1.9-1.8,2.7v0c0,0.4,0.1,0.5,0.3,0.5c0.1,0,0.5-0.2,1.1-0.5l1.2-0.8l1-0.6
		c1-0.9,2-1.8,3.1-2.5c0.4-0.3,0.6-0.6,0.6-1C112.4,21.5,112.1,21.1,111.7,20.7z"/>
	<path d="M145.6,42.5l0.5-1.1c-0.8-0.3-1.3-0.7-1.5-1c-0.8-0.8-1.1-1.3-1.2-1.3c-0.2-0.1-1.3-0.2-3.4-0.4l-2.1-0.1
		c-0.2,0-0.3,0.1-0.4,0.3c-0.2,0.4-0.4,0.7-0.6,0.8h-0.8l-0.2-0.8c-0.4-0.4-0.7-0.5-0.9-0.5c-0.2,0-0.9,0.1-2,0.3
		c-0.7,0.1-1.3,0.4-1.8,0.7l-1.5-0.3c-1.8,1.7-3.3,2.9-4.5,3.6c-0.2-0.5-0.4-1.1-0.4-1.5c0-1.2,0.1-2.4,0.4-3.7
		c0-0.2,0.1-0.3,0.1-0.4c0,0-0.1-0.4-0.2-1.1l0.1-0.7l-0.2-1.5c0.3-0.7,0.4-1.1,0.4-1.2c0,0-0.1-0.7-0.2-2l-0.2-1.4
		c0.3-1,0.4-1.6,0.4-1.8c0-0.4-0.1-0.7-0.2-0.8l-0.6-0.7c-0.1-0.1-0.2-0.4-0.2-0.9c0.5-0.6,0.8-1.1,0.8-1.6c0-0.2,0-0.5,0-0.8
		c0-0.4-0.1-0.7-0.1-0.9l0.4-6.2c-0.2,0-0.5,0.1-0.7,0.2c-0.3,0.2-0.6,0.3-0.9,0.3c-0.1-0.3-0.1-0.6-0.1-0.8c0-0.1,0.1-0.3,0.2-0.6
		c0.1-0.3,0.2-0.4,0.3-0.5l0.6-0.3l0.3-0.7c0.3-0.6,0.4-1,0.4-1.2c0-0.4-0.1-0.6-0.2-0.7l-2.7-2.6l1.3-1.4c0.1-0.2,0.8-0.5,1.9-0.9
		c-0.4-0.2-0.6-0.3-0.8-0.3c-0.6,0-1.2,0.2-1.9,0.5l-2.3,1.2c-0.8,0.4-1.2,0.8-1.4,1.2l0.7,0.7c0,0.3,0,0.6,0,0.8
		c0,0.2,0.3,1.2,0.8,3c-0.1,0.9-0.2,1.4-0.2,1.5c0,0.3,0,0.8,0.1,1.6c0,0.4,0,0.8,0,1.3c0,0.3,0,0.8,0,1.4c0.5,0.4,0.7,0.7,0.7,1.1
		c0,0.1-0.1,0.6-0.4,1.4c0,0.5-0.1,0.9-0.2,1.3c1.2,0.1,2,0.4,2.5,0.8v0c0,0.1-0.6,0.6-1.7,1.4c-0.4,0.4-0.7,0.8-0.7,1.4
		c0,0.7,0.1,1.8,0.4,3.5c0.1,0.4,0.1,0.8,0.1,1.2c0,0.3,0,0.8-0.1,1.5l0.8,0.6c0.1,0.6,0.3,1.1,0.6,1.7l-1.2,0.1
		c-0.1,2.2-0.2,4.2-0.2,6c0,1.4,0.1,2.7,0.4,3.8l0.8-0.2c0.1,0.4,0.1,0.8,0.1,1.1c0,0.3-0.1,0.4-0.2,0.6c-0.6,0.5-0.9,0.8-0.9,0.9
		c0,0.2-0.1,0.4-0.1,0.7l0.1,2l-0.2,2.6l0.1,1.3c0,0,0,0.2,0,0.4c0,0.3,0,0.4,0,0.6v1.7l-0.1,1.8v0c0,0.1,0.1,0.4,0.4,0.9
		c0.1,0.2,0.2,0.4,0.2,0.6c0,0.3-0.1,0.6-0.2,0.8c-0.3,0.6-0.5,0.9-0.5,1v1c-0.3,1.1-0.5,1.9-0.5,2.6l0.8,0.7
		c0.8-0.7,1.3-1.1,1.7-1.2c1.5-0.5,2.2-0.7,2.2-0.8c0.3-0.3,0.4-0.5,0.4-0.7l0-0.6v-0.6l-0.2-0.9l0.3-1.5l-0.2-1.1
		c0-1.4-0.2-2.4-0.4-3c-0.1-0.5-0.5-1.1-1.1-1.8v-0.2c0.2-0.2,0.5-0.3,1-0.3c0.1-1.9,0.2-3.2,0.4-3.9c0-0.1,0.1-0.5,0.2-0.9
		c-1.5-0.3-2.3-0.8-2.3-1.4c0-0.2,0.9-1,2.6-2.6l1.2-0.4l2-1.1l0.5-0.1c1-0.2,2-0.4,2.8-0.4c0.1,0,0.7,0,1.7-0.1c0.3,0,0.5,0,0.7,0
		c0.2,0,1,0.1,2.3,0.3c0.9,0,1.4,0,1.5,0c0.2,0,0.7,0.3,1.7,0.8c0.7,0.2,1.1,0.3,1.2,0.4c0.4,0.2,0.7,0.6,0.8,1
		c0.3,0.7,0.5,1,0.5,1.2v0c0,0.1,0,0.3-0.1,0.5c-0.1,0.2-0.1,0.3-0.1,0.3c0,0,0.1,0.6,0.2,1.7c0,0.1,0,0.2,0,0.2c0,0.1,0,0.3,0,0.4
		c-0.3,2-0.4,3.4-0.4,4.1l0.6,0.4c-0.2,1.2-0.4,2.2-0.7,3l-0.2,1.3l-0.1,0.5c0.3,0.9,0.5,1.4,0.5,1.7c0,0.9-0.2,1.8-0.6,2.7
		c-0.3,0.7-0.6,1.3-0.7,1.9l1.2,1.1c0.4-0.2,0.8-0.4,1.3-0.6c0.4-0.2,0.8-0.4,1.2-0.7c0.8-0.1,1.4-0.3,2-0.7c0-0.3,0-0.4,0-0.4
		l0.1-3c-0.3-1.5-0.5-2.3-0.5-2.4s0.2-0.6,0.6-1.3l0-0.4l-0.1-2.1l0-0.9c0-0.1,0.1-0.3,0.2-0.6l-0.9-1l0.1-0.3l0.7-0.8l-0.5-1.4
		c0.1-0.1,0.3-0.3,0.4-0.4c0.3-0.3,0.4-0.8,0.5-1.6c0.1-0.9,0.1-1.7,0.1-2.4c0-0.6-0.2-1.3-0.7-1.9
		C146.3,42.8,145.9,42.7,145.6,42.5z"/>
	<path d="M188.8,50h0.6c-0.1-0.6-0.2-1.5-0.3-2.5c-0.1-1.1-0.3-1.8-0.4-2.3c-0.2-0.4-0.5-1.1-1.1-2.1c-1.1,0-1.9-0.4-2.4-1.1
		c-0.4-0.8-0.7-1.2-0.7-1.2c-0.1-0.1-0.5-0.4-1.2-0.8c-1-0.7-2.1-1.1-3.4-1.4c-0.2,0.5-0.5,0.8-0.8,0.9c-0.2-0.2-0.5-0.4-0.8-0.5
		l-0.1-0.7c-0.9-0.2-1.6-0.3-2.1-0.3c-2.7,0-4.7,0.3-6.2,0.8c-2.7,1-4.1,1.6-4.2,1.7c-0.6,0.7-1.2,1.1-1.7,1.3
		c-1.5,0.8-2.4,1.2-2.7,1.4c-0.1,0.1-0.3,0.3-0.5,0.7c-0.3,0.7-0.5,1-0.5,1.1c-0.9,0.6-1.5,1-1.6,1.2c-0.1,0.2-0.7,1.2-1.7,3
		c-0.5,1.2-0.8,2.2-1,2.8c-0.2,0.7-0.3,1.8-0.3,3.4l0,0.1c0.5,0.2,0.9,0.5,1.1,0.9c-0.5,0.4-0.7,0.7-0.7,1.1c0,0.8,0.3,1.6,0.8,2.5
		c0.1,0.2,0.2,0.3,0.2,0.3c0.5,0.3,0.7,0.5,0.7,0.5c0.1,0.1,0.2,0.3,0.3,0.5c0,0.2,0.1,0.5,0.3,0.9c0.6,0.4,1.1,0.6,1.3,0.7
		c1.4,0.9,2.3,1.4,2.8,1.5c0.9,0.1,1.3,0.2,1.4,0.2c0.2,0.1,0.4,0.3,0.7,0.7c0.5,0,1.8,0.2,3.9,0.6l1.1-0.1h2.5l2.5-0.5
		c2.1-0.1,3.2-0.2,3.4-0.2c0.2,0,0.7-0.3,1.7-0.8l1.8-0.8l1.9-0.9c1-0.3,2.2-1.2,3.4-2.7c0.4-0.6,1-1.9,1.8-3.9
		c0.3-0.7,0.5-1.1,0.5-1.2c0.1-0.4,0.1-1.1,0.2-2.1c-0.6-0.4-0.9-0.7-1-1.1l0.7-0.8V50z M185,55.4c0,0.3,0,0.5-0.1,0.7
		c-0.1,0.1-0.4,0.5-1,1.1l-0.9,1.8c-0.7,1.2-1.2,1.9-1.3,2.1c-0.1,0.1-0.6,0.3-1.5,0.6c-1.4,0.9-2.2,1.4-2.4,1.5
		c-0.8,0.2-1.5,0.3-1.9,0.4c-0.7,0.2-1.3,0.2-1.8,0.2c-0.3,0-0.7-0.1-1.2-0.2l-1.1-0.2h-2.1c-0.8,0-1.7-0.2-2.5-0.6
		c-1.9-1-3-1.5-3.1-1.5c-0.2,0-0.4,0.1-0.6,0.4c-0.5,0-0.9-0.2-0.9-0.5c0.2-0.5,0.4-0.8,0.4-1c0-0.1,0-0.2,0-0.2
		c-1.1-1.8-1.7-2.8-1.8-3.1c-0.1-0.4-0.3-1-0.5-1.8c-0.2,0-0.5,0.1-0.7,0.4l-0.3-0.3v-0.4c0.8-0.4,1.2-0.8,1.2-1
		c0-0.1-0.3-0.4-0.9-0.9c-0.2-0.5-0.3-0.7-0.3-0.8c0.8-0.3,1.2-0.8,1.2-1.3c0-0.1,0-0.3,0-0.5c0.4-0.4,0.6-1,0.9-1.7l0.7-1.2
		c0.1-0.2,0.2-0.6,0.2-1.2l0.3-0.2l4.2-3.6l0.2-0.3l1.5-0.8c0.2-0.1,0.5-0.4,0.8-0.8l0.7,0.5c0.8-0.5,1.4-0.8,1.8-0.8
		c0.4,0,1.2-0.1,2.4-0.1c0.1,0,0.5,0.1,1.2,0.3c0.6-0.2,0.9-0.4,1.1-0.4c0.5,0,0.9,0.4,1.1,1.2c0.8,0.3,1.4,0.6,1.8,0.7
		c0.4,0.2,0.6,0.3,0.7,0.3c0.1,0.1,0.3,0.4,0.8,1c0.8,1,1.3,1.7,1.6,2.2h0.8l0.1,0.1c0,0.7,0.1,1.2,0.1,1.4l0.6,1.8
		c0.3,1,0.5,1.7,0.7,2.1c-0.2,0.7-0.4,1.6-0.4,2.6l-0.1,0.7v0C184.4,54.4,184.6,54.8,185,55.4z"/>
	<path d="M229.6,50h0.6c-0.1-0.6-0.2-1.5-0.3-2.5c-0.1-1.1-0.3-1.8-0.4-2.3c-0.2-0.4-0.5-1.1-1.1-2.1c-1.1,0-1.9-0.4-2.4-1.1
		c-0.4-0.8-0.7-1.2-0.7-1.2c-0.1-0.1-0.5-0.4-1.2-0.8c-1-0.7-2.1-1.1-3.4-1.4c-0.2,0.5-0.5,0.8-0.8,0.9c-0.2-0.2-0.5-0.4-0.8-0.5
		l-0.1-0.7c-0.9-0.2-1.6-0.3-2.1-0.3c-2.7,0-4.7,0.3-6.2,0.8c-2.7,1-4.1,1.6-4.2,1.7c-0.6,0.7-1.2,1.1-1.7,1.3
		c-1.5,0.8-2.4,1.2-2.7,1.4c-0.1,0.1-0.3,0.3-0.5,0.7c-0.3,0.7-0.5,1-0.5,1.1c-0.9,0.6-1.5,1-1.6,1.2c-0.1,0.2-0.7,1.2-1.7,3
		c-0.5,1.2-0.8,2.2-1,2.8c-0.2,0.7-0.3,1.8-0.3,3.4l0,0.1c0.5,0.2,0.9,0.5,1.1,0.9c-0.5,0.4-0.7,0.7-0.7,1.1c0,0.8,0.3,1.6,0.8,2.5
		c0.1,0.2,0.2,0.3,0.2,0.3c0.5,0.3,0.7,0.5,0.7,0.5c0.1,0.1,0.2,0.3,0.3,0.5c0,0.2,0.1,0.5,0.3,0.9c0.6,0.4,1.1,0.6,1.3,0.7
		c1.4,0.9,2.3,1.4,2.8,1.5c0.9,0.1,1.3,0.2,1.4,0.2c0.2,0.1,0.4,0.3,0.7,0.7c0.5,0,1.8,0.2,3.9,0.6l1.1-0.1h2.5l2.5-0.5
		c2.1-0.1,3.2-0.2,3.4-0.2c0.2,0,0.7-0.3,1.7-0.8l1.8-0.8l1.9-0.9c1-0.3,2.2-1.2,3.4-2.7c0.4-0.6,1-1.9,1.8-3.9
		c0.3-0.7,0.5-1.1,0.5-1.2c0.1-0.4,0.1-1.1,0.2-2.1c-0.6-0.4-0.9-0.7-1-1.1l0.7-0.8V50z M225.7,55.4c0,0.3,0,0.5-0.1,0.7
		c-0.1,0.1-0.4,0.5-1,1.1l-0.9,1.8c-0.7,1.2-1.2,1.9-1.3,2.1c-0.1,0.1-0.6,0.3-1.5,0.6c-1.4,0.9-2.2,1.4-2.4,1.5
		c-0.8,0.2-1.5,0.3-1.9,0.4c-0.7,0.2-1.3,0.2-1.8,0.2c-0.3,0-0.7-0.1-1.2-0.2l-1.1-0.2h-2.1c-0.8,0-1.7-0.2-2.5-0.6
		c-1.9-1-3-1.5-3.1-1.5c-0.2,0-0.4,0.1-0.6,0.4c-0.5,0-0.9-0.2-0.9-0.5c0.2-0.5,0.4-0.8,0.4-1c0-0.1,0-0.2,0-0.2
		c-1.1-1.8-1.7-2.8-1.8-3.1c-0.1-0.4-0.3-1-0.5-1.8c-0.2,0-0.5,0.1-0.7,0.4l-0.3-0.3v-0.4c0.8-0.4,1.2-0.8,1.2-1
		c0-0.1-0.3-0.4-0.9-0.9c-0.2-0.5-0.3-0.7-0.3-0.8c0.8-0.3,1.2-0.8,1.2-1.3c0-0.1,0-0.3,0-0.5c0.4-0.4,0.6-1,0.9-1.7l0.7-1.2
		c0.1-0.2,0.2-0.6,0.2-1.2l0.3-0.2l4.2-3.6l0.2-0.3l1.5-0.8c0.2-0.1,0.5-0.4,0.8-0.8l0.7,0.5c0.8-0.5,1.4-0.8,1.8-0.8
		c0.4,0,1.2-0.1,2.4-0.1c0.1,0,0.5,0.1,1.2,0.3c0.6-0.2,0.9-0.4,1.1-0.4c0.5,0,0.9,0.4,1.1,1.2c0.8,0.3,1.4,0.6,1.8,0.7
		c0.4,0.2,0.6,0.3,0.7,0.3c0.1,0.1,0.3,0.4,0.8,1c0.8,1,1.3,1.7,1.6,2.2h0.8l0.1,0.1c0,0.7,0.1,1.2,0.1,1.4l0.6,1.8
		c0.3,1,0.5,1.7,0.7,2.1c-0.2,0.7-0.4,1.6-0.4,2.6l-0.1,0.7v0C225.2,54.4,225.4,54.8,225.7,55.4z"/>
	<path d="M271.3,50.4c0-0.2,0-0.4,0-0.6v0c-0.3-1.8-0.6-3.3-1-4.5c-0.3-0.8-0.9-1.6-1.7-2.4l-1.4,0.3c-0.2-0.3-0.4-0.6-0.4-0.8
		c-0.1-0.4-0.2-0.7-0.3-0.8c-0.5-0.6-1.4-1.1-2.8-1.6c-0.6-0.3-1.2-0.5-1.7-0.6c-0.5-0.5-0.9-0.8-1.3-0.8c-0.1,0-0.3,0-0.6,0
		c-0.1,0-0.3,0-0.7,0l-4.4-0.1c-1.8,0.1-2.9,0.5-3.3,1.2c-0.6-0.4-1.2-0.5-2-0.5c-0.2,0-0.7,0.1-1.5,0.4l-0.9,0.2
		c-1.6,0.9-2.6,1.4-3.1,1.7c-0.2-0.4-0.2-0.6-0.2-0.8c0-0.2,0.1-0.5,0.2-0.8c-0.5-0.6-0.9-0.9-1.3-0.9c-0.2,0-0.9,0.4-2.1,1.1
		c-0.9,0.8-1.5,1.3-1.8,1.5c-0.4,0.3-0.6,0.5-0.6,0.5c0,0.1-0.1,0.3-0.2,0.7c0.6,0.4,0.9,0.8,1,1c0.1,0.4,0.3,1.6,0.5,3.4v0.1
		c0,0.1,0,0.3-0.1,0.5c0,0.2-0.1,0.3-0.1,0.4c0,0,0,0.5,0.1,1.5c0,0.1,0,0.1,0,0.2c0,0.2,0,0.6,0,1.2c0,0.3,0,0.6,0,0.9
		c0,0.2,0,0.6,0,1.2c0.5,0.2,0.7,0.5,0.7,0.7l0,0.4l0.1,1.4c-0.3,0.5-0.4,0.9-0.4,1V62l-0.1,1.7c-0.1,1.7-0.2,2.7-0.2,2.8
		c0,0.7,0.4,1.1,1.1,1.3l0.1,2.2l-0.5,0.3c-0.3,2.8-0.5,4.3-0.5,4.4c0,0.5,0.2,1.1,0.5,1.6c0.9,1.5,1.3,2.3,1.3,2.4
		c0,0.2-0.6,0.7-1.7,1.3l0.1,0.1c1.2,0.4,1.8,0.7,1.8,0.8c0,0.2-0.7,0.6-2.1,1.2c0.1,0.1,0.3,0.2,0.6,0.5c0.3,0.2,0.4,0.4,0.4,0.5
		s-0.2,0.4-0.6,0.8c-0.1,0.1-0.2,0.2-0.4,0.5l0.3,2c-0.3,0.4-0.5,0.6-0.6,0.8l-0.1,0.1l2.7,3l-1.4,2.3c0,0.8-0.1,1.3-0.2,1.5
		s-0.5,0.4-1.3,0.7l0.9,0.2h0c0.8-0.1,1.6-0.4,2.5-0.9l0.8-0.3c0.3-0.5,0.4-0.9,0.5-0.9c0.1-0.2,0.5-0.5,1.1-0.8
		c0-0.6-0.1-1.2-0.2-1.7c-0.1-0.4-0.1-0.8-0.1-1c0-0.2,0-0.4,0-0.6l-1.1-0.6c0.2-0.1,0.6-0.2,1-0.3c0.1-0.3,0.2-0.5,0.2-0.6
		l-0.2-0.9c0-1.3,0-2.2-0.1-2.5c0-0.3-0.1-1-0.1-2.1l-0.6,0.1c0-0.2,0-0.4,0-0.6c0-0.2,0-0.3,0-0.4c-0.3-1-0.4-1.5-0.4-1.6
		c0-0.2,0-0.5,0.1-0.7l0.8-0.2c0-0.5-0.1-1.6-0.2-3.1c-0.2-0.9-0.3-1.4-0.3-1.5c-0.1-0.3-0.2-0.4-0.2-0.4s-0.6-0.4-1.8-1.1l0.5-0.4
		c0.1-0.1,0.2-0.4,0.3-0.8s0.2-0.7,0.2-0.7l1.1-0.6c0.2-0.1,0.2-0.3,0.2-0.6c0-0.2,0-0.4-0.1-0.7c-0.1-1.3-0.1-2.2-0.1-2.6
		c0-0.3,0.1-0.7,0.3-1.2c0.4,0.2,0.6,0.3,0.8,0.3c0.1,0,0.2,0,0.3,0c0.2,0,0.4,0,0.5,0h0.4h0.2c0.3,0,0.5-0.1,0.6-0.2
		c0.1-0.1,0.3-0.5,0.6-1.2l0.4-0.7c0.1,0,0.3,0.5,0.7,1.6l-0.1,0.6c1,0.1,1.9,0.2,2.8,0.4c0.5,0.2,0.7,0.3,0.8,0.3
		c0.1,0,0.5-0.1,1-0.4c0.2-0.1,0.3-0.1,0.4-0.1h2.4c0.4,0,1-0.2,1.9-0.6c3.4-1.1,5-2.3,4.9-3.6c0.2-0.1,0.5-0.1,0.9-0.1
		c0.5,0,0.8,0,0.9-0.1c0.8-0.4,1.3-1.2,1.6-2.4l1.4,0.3c0.3-0.5,0.7-0.9,1.1-1.3l1-1.8c0.5-0.6,0.8-1.2,1.1-1.7
		c0.4-0.9,0.6-1.4,0.6-1.5v-0.1c-0.1-0.6-0.2-1-0.2-1.4C271.3,50.8,271.3,50.6,271.3,50.4z M267.2,51.9c0,0.3,0.1,0.6,0.1,0.8
		c0,0.4-0.2,1.1-0.5,2.1c-0.5,1.6-0.9,2.5-1.2,2.8c-0.2,0.2-0.8,0.7-1.8,1.5l-1.1,1.2l-1.3,0.9c-0.5,0.5-0.8,0.8-1,0.9
		c-0.3,0.2-0.8,0.5-1.6,0.9l-1.1,0.5l-1.3-1.5c-1.6,0.2-2.5,0.4-2.5,0.4c-0.1,0-0.3,0-0.4,0l-2.3-0.8c-0.1,0-0.5-0.1-1.2-0.1
		c-0.6,0-1-0.1-1.2-0.2c-0.4-0.1-0.6-0.2-0.8-0.2s-0.4,0.1-0.7,0.4c-0.2-0.3-0.3-0.4-0.4-0.4c-0.2-0.2-0.9-0.6-2.2-1.2
		c-0.2-0.1-0.5-0.2-0.9-0.5c0-0.4,0.1-0.7,0.1-0.9c0-0.3,0.1-0.4,0.1-0.4l-0.1-1.9l0-1.6c0-0.2-0.2-0.6-0.5-1.3
		c0.4-0.8,0.6-1.3,0.6-1.5v0c-0.1-0.8-0.1-1.1-0.1-1.2c0-0.1,0-0.4,0.1-0.8c0-0.2,0-0.5,0-0.7c0-0.4,0-0.9,0-1.5h-0.4l-0.3-0.3
		l0-0.2l-2-0.5c0.8-0.4,1.7-0.7,2.8-0.8c0-0.4,0-0.6,0-0.8c0-0.5,0.1-0.8,0.2-1.1c0.2-0.3,0.6-0.5,1.2-0.6c0.5-0.3,0.8-0.5,1.1-0.6
		l0.9-0.1c1.6-0.5,2.5-0.7,2.7-0.8c0.9-0.1,2.5-0.2,4.9-0.2c0.9,0,1.6,0.1,1.9,0.2l0.7,0.4c0.9,0,1.4,0,1.4,0c0.2,0,0.8,0.4,1.6,1
		c0.2,0.1,0.5,0.4,1,0.7c0.7-0.1,1.2-0.2,1.3-0.2c0.4,0,0.8,0.2,1.1,0.7c-0.1,0.3-0.1,0.5-0.1,0.7c0,0.1,0.1,0.3,0.4,0.6
		c0.4,0.5,0.8,1,1.4,1.4c0.2,0.8,0.3,1.3,0.5,1.6c0.2,0.4,0.6,0.8,1.1,1.1c-0.2,0.4-0.2,0.6-0.2,0.8C267.1,51,267.2,51.4,267.2,51.9
		z"/>
	<path d="M306.6,57.7c-0.4,0.6-0.8,1.2-1.2,1.7c-0.2,0.2-0.8,0.7-1.8,1.3c-1.1,0.7-1.8,1.1-2.2,1.2c-0.3,0.1-0.8,0.2-1.7,0.2
		l-1.7,0.5l-2.3,0.2c-0.9,0.3-1.5,0.4-1.8,0.4c-0.3,0-0.6-0.1-0.9-0.2c-1.3-0.6-2-0.9-2.1-0.9c-0.2,0-0.4,0-0.7,0.1l-0.6-0.9
		c-0.7,0-1.1-0.1-1.3-0.3c-0.3-0.1-0.4-0.6-0.6-1.3c-0.8-0.1-1.4-0.3-1.8-0.6c-0.4-0.3-0.7-1-0.9-1.9l-1.1-0.3l0.2-1.3l-0.6-0.4
		c-0.2-0.5-0.4-1.5-0.7-3c0-0.2-0.4-0.6-1.2-1.1c0.4-0.4,0.7-0.8,0.8-1.2c0.1-0.3,0.2-0.9,0.4-1.7c0.5-0.1,1.4-0.3,2.8-0.7l1.5,0
		l1.7-0.3l1.6-0.1l1.3-0.1c1.7,0,2.7,0,3.1-0.1l0.2,0.1c0.5-0.1,1-0.1,1.3-0.1c0.1,0,0.9,0.1,2.4,0.4c1-1,1.5-1.4,1.7-1.4
		c0.1,0,0.8,0.5,2.3,1.5l1.1-0.3l1.2,0.2l1.3-0.5c0.4,0.2,0.8,0.3,1.1,0.3l0.2-0.2c-0.2-0.5-0.4-0.9-0.5-1.3
		c-0.2-0.6-0.4-1.2-0.6-1.6c-0.2-0.5-0.6-1.1-1.2-1.7c-1.8-1.9-2.8-2.8-3-3c-0.4-0.2-0.7-0.3-0.7-0.4c-0.1-0.1-0.4-0.4-0.7-0.8
		l-1.1,0.7c-0.5-1.2-1.4-1.9-2.7-1.9c-0.1,0-0.9,0.3-2.3,0.8l-1.7,0.1l-2.7,0.8l-0.9,0.2l-2.6,1.8l-2.6,1.6c-1,0.9-1.9,1.8-2.7,2.5
		l-0.8,1.7l-1.2,1.4c-0.1,0.1-0.3,0.7-0.6,1.6c-0.3,1.2-0.5,2-0.5,2.5c0,1.7,0.1,2.7,0.2,3c0.6,1.2,0.9,1.9,0.9,2
		c0,0.2-0.1,0.5-0.4,0.8c0.7,0.7,1.1,1.1,1.2,1.3l0.6,1.1c0,0.2,0.4,0.5,1.1,0.9c0.8,0.5,1.2,0.7,1.2,0.8c0.7,0.6,1.1,1,1.2,1.1
		c0.2,0.1,1.2,0.4,2.9,0.9l0.7,0.5l0.7,0.1c1.4,0.2,2.3,0.2,2.6,0.2s0.7,0,1.3-0.1l0.6,0l1.2-0.2l2.1,0.3c0,0,0.4-0.1,1.1-0.4
		c0.3-0.1,0.9-0.2,1.8-0.2c0.6-0.1,1.6-0.3,3-0.7c0.6,0,1.2-0.2,1.6-0.5c0.6-0.5,1-0.7,1.2-0.7c0.2,0,0.5,0.1,0.8,0.2
		c0.3-0.5,0.9-1.6,1.9-3.3c0.1-0.3,0.3-0.8,0.5-1.7c-0.4-0.3-0.7-0.5-0.9-0.5C307.1,57.3,306.8,57.4,306.6,57.7z M285.5,44.2
		c0.4-0.3,0.7-0.5,0.8-0.6c0.8-0.7,1.2-1.1,1.4-1.2c0.8-0.3,1.6-0.7,2.6-1c1.2-0.3,1.9-0.4,1.9-0.5l1.2-0.7l0.7,0
		c1.6,0,2.8,0,3.5,0.1c0.3,0.5,0.5,0.7,0.7,0.8l1.2,0.6c0.1,0,0.5,0.3,1.1,1.1c0.2,0.2,0.3,0.4,0.4,0.4c0.3,0.3,0.4,0.6,0.4,0.8
		c0,0.1,0,0.2,0,0.4c-0.1,0.2-0.2,0.4-0.2,0.4l-2-0.2c-0.6,0.2-1.3,0.4-1.9,0.5c-0.2,0-0.5,0.1-0.9,0.2l-0.6-0.7
		c-0.5,0-0.9,0.1-1.1,0.2c-1,0.2-1.7,0.4-2,0.4c0,0,0,0-0.1,0c-1.1-0.3-1.7-0.5-1.7-0.5c-0.1,0-0.3,0-0.4,0.1l-1.4,1.7l-0.8-0.8
		l-2.6-1l-0.1-0.1V44.2z"/>
	<path d="M336.6,38.1c-0.1,0-0.1,0-0.2,0c-0.6,0.3-1,0.5-1,0.5s-0.2,0-0.5-0.1c-0.5-0.4-0.7-0.7-0.7-0.7c-0.2-0.1-0.4-0.2-0.8-0.2
		c-0.5,0-0.9,0-1.1,0.1c-1.5,0.5-2.3,0.7-2.4,0.7c0,0-0.1,0-0.1,0l-0.8-0.1c0,0-0.3,0.1-0.8,0.4l-0.9,0.4l-1.5,1l-1.5,0.5
		c-0.8,0.4-1.4,0.7-1.9,0.9c-0.3-0.3-0.4-0.5-0.4-0.7c0-0.1,0-0.3,0.1-0.6l-0.3-1.1l-0.1-0.6c-0.2-0.3-0.5-0.5-0.9-0.5
		c-0.1,0-0.7,0.3-1.7,0.9c-1,0.5-1.6,0.8-1.8,1.1c-0.3,0.4-0.5,0.7-0.7,1.2c0.5,0.6,0.8,1.1,0.8,1.3c0.1,1.5,0.1,2.2,0.1,2.3
		c0,0.2,0.2,0.4,0.5,0.7c-0.3,0.6-0.5,1.1-0.5,1.5c0,0.1,0,0.3,0,0.6c0,0.2,0,0.4,0,0.6v0.3v0.9v0.7c0,0.6,0,1.1,0,1.5
		c0.2,0.2,0.4,0.3,0.6,0.3c0.2,0,0.4,0,0.7-0.1c0.1,0.2,0.1,0.4,0.1,0.6c0,0.4-0.4,0.8-1.3,1.1c0,0.5,0,1.2-0.1,2
		c0.1,0.9,0.2,1.4,0.2,1.7c0,0.3,0,0.6,0,0.9c0.4,0.4,0.5,0.8,0.5,1.1c0,0.2,0,0.4,0,0.6l-0.8,0.2c-0.1,0.3-0.1,0.5-0.1,0.6
		c0.1,1,0.2,1.5,0.2,1.6c0,0.1,0,0.3-0.1,0.4c-0.4,1.2-0.5,1.9-0.5,2c0,0.5,0.3,0.7,0.8,0.7c0.2,0,0.4,0,0.5-0.1
		c0.8-0.5,1.3-0.8,1.5-0.9c1-0.1,1.6-0.2,1.8-0.4c0.5-0.3,0.8-0.7,0.8-1.3c0-0.3-0.1-0.8-0.4-1.6l-0.6,0.1c-1.5-0.2-2.2-0.4-2.2-0.5
		c0-0.1,0.7-0.3,2-0.5l0.9-0.5l0.1-0.4l-0.2-6.3l-0.1-1.1l-0.5-0.1c0-0.2,0.1-0.4,0.1-0.6c0-0.3-0.2-0.7-0.6-1.1
		c0.5-0.5,0.8-0.9,0.8-1.2c0-0.3,0-0.6,0-1.1c0-0.5,0-0.8,0-1.1v-0.1c0-1.4,0.3-2.3,1.1-2.8c1.2-0.8,2-1.5,2.5-1.9
		c0.3,0.2,0.5,0.2,0.6,0.2l1.4-0.4c0.2,0,0.6-0.1,1.2-0.1c0.5,0,0.9-0.3,1.2-0.8c0.6,0.1,1.2,0.2,1.7,0.4c0.7,0.3,1.2,0.4,1.5,0.4
		c0.3,0,0.6,0,1.1-0.1c0.6,0.8,1.1,1.1,1.5,1.1c0.2,0,0.6-0.3,1.1-1c1.1-0.8,1.8-1.3,2.1-1.7c-0.2-0.7-0.4-1.2-0.8-1.5
		C337.2,38.2,336.9,38.1,336.6,38.1z"/>
	<path d="M345.8,59.7c-0.6-0.3-1.3-0.7-2.1-1.3c-0.4,0.3-0.8,0.6-1.1,0.9c-0.4,0.4-1,0.9-1.9,1.6c-0.1,0.1-0.4,0.3-0.8,0.6v0.4
		c0.3,0.1,0.7,0.2,1.3,0.2c0.4,0.7,0.7,1.1,0.9,1.2c0.7,0.5,1.3,1,1.7,1.4c0.1,0.1,0.4,0.4,0.7,0.7c1.6-1,2.6-1.7,2.8-2.1
		c0.4-0.9,0.7-1.5,0.7-1.6c0-0.2-0.2-0.6-0.7-1.1C347.1,60.4,346.5,60.1,345.8,59.7z"/>
	<path d="M381.8,59.5c-0.2,0.2-0.4,0.4-0.6,0.5c-0.4,0.3-0.8,0.6-1.2,0.9c-0.5,0.4-1,0.7-1.6,0.7c-0.7,0.5-1.1,0.9-1.3,0.9
		c-0.1,0.1-0.3,0.2-0.6,0.4l-0.6-0.2c-1.1,0.5-1.9,0.8-2.3,0.8l-0.9-0.1l-1.2-0.1l-1.3-0.3c-0.9,0-1.5-0.1-1.6-0.1
		c-0.2,0-0.8-0.2-1.7-0.6l-0.9-0.7l-1.3-0.9c-0.1-0.1-0.4-0.4-0.7-0.8L363,60c-0.3-0.6-0.9-1.6-2-2.9c-0.7-0.2-1.1-0.3-1.2-0.4
		c0-0.3,0.2-0.8,0.6-1.4c-0.6-1.5-0.9-2.6-0.9-3.1c0-2.6,0.1-4,0.3-4.3c0.6-0.9,0.9-1.4,0.9-1.5c0-0.2,0-0.4-0.1-0.7
		c0.6-0.1,1-0.2,1.3-0.4c0.2-0.2,0.3-0.5,0.4-1.1c0.6-0.1,1-0.2,1.2-0.5c0.8-0.8,1.3-1.2,1.5-1.4c0.3-0.1,0.8-0.2,1.6-0.3
		c1.5-0.3,2.4-0.4,2.6-0.4c0.3,0,0.6,0,1.1,0.1c0.4,0,0.6,0,0.8,0c0.5,0,1.2,0.2,2,0.5l0.8,0.1l1,0.1h0l1.3-0.1c0,0,0.1,0,0.1,0
		l0.5,0.1c0.1,0,0.3-0.1,0.6-0.4c0.2-0.2,0.7-0.5,1.5-0.8l0.2-0.9c0.6-0.2,0.9-0.4,1.2-0.6c0.2-0.2,0.4-0.6,0.5-1.2
		c-0.4-0.3-0.8-0.5-1.3-0.5c-0.1,0-0.7,0.2-1.8,0.5c-0.2,0-0.5-0.1-0.9-0.1c-0.3,0-0.5,0-0.6-0.1c-1-0.3-1.5-0.4-1.5-0.4
		c-0.1,0-0.2,0-0.2,0c-1.1,0.3-1.7,0.5-1.8,0.5c-0.2,0-0.6-0.3-1-0.7c-0.4,0.1-0.9,0.1-1.5,0.2c-0.3,0-1,0.3-2.1,0.7l-1.9,0.7
		l-1,0.8l-0.8,0.3l-0.8,0.6l-0.9,0.5l-1.5,1.5l-1.2,1l-0.8,0.9c-0.4,0.4-0.8,0.7-1.3,1.1c-0.2,0-0.5,0.6-1,1.5
		c-0.7,1.6-1.3,2.6-1.6,3.1c1.5,0.2,2.3,0.6,2.3,1.3c0,0.7-0.3,1.2-0.9,1.6c-1.1,0.6-1.7,1-1.7,1.1c0,0.2,0.3,0.5,1,1l-0.2,1v0.1
		c0.1,0.7,0.1,1.1,0.1,1.3c0,0.3,0.2,0.8,0.6,1.3c0.2,0.2,0.5,0.8,0.9,1.7l0.1,0.1l1.2-0.2l0,0.1c-0.1,0.3-0.1,0.5-0.1,0.7
		c0,0.2,0.6,0.9,1.8,2.1c0.2,0.2,0.4,0.3,0.5,0.4c0.2,0.1,0.5,0.2,1.2,0.3l1,0.3l0.8,0.1c1.2,0.4,2.2,0.6,2.8,0.6
		c0.5,0,1,0.3,1.6,0.6c0.5-0.1,0.9-0.1,1-0.1l3.6,0c0.1,0,0.2,0,0.3-0.1c0.6-0.4,0.9-0.6,0.9-0.6c0.2-0.1,1-0.2,2.2-0.5h0l1.2,0.1
		c0.3,0,0.7-0.2,1.1-0.5c0.3-0.2,0.6-0.4,1-0.4c0.9-0.6,1.6-1,2.1-1.2c0.3-0.5,0.7-1,1.2-1.4c0-0.7,0.1-1.5,0.4-2.4
		c-0.2-0.2-0.4-0.4-0.6-0.4C382.8,58.5,382.4,58.8,381.8,59.5z"/>
	<path d="M422.1,50h0.6c-0.1-0.6-0.2-1.5-0.3-2.5c-0.1-1.1-0.3-1.8-0.4-2.3c-0.2-0.4-0.5-1.1-1.1-2.1c-1.1,0-1.9-0.4-2.4-1.1
		c-0.4-0.8-0.7-1.2-0.7-1.2c-0.1-0.1-0.5-0.4-1.2-0.8c-1-0.7-2.1-1.1-3.4-1.4c-0.2,0.5-0.5,0.8-0.8,0.9c-0.2-0.2-0.5-0.4-0.8-0.5
		l-0.1-0.7c-0.9-0.2-1.6-0.3-2.1-0.3c-2.7,0-4.7,0.3-6.2,0.8c-2.7,1-4.1,1.6-4.2,1.7c-0.6,0.7-1.2,1.1-1.7,1.3
		c-1.5,0.8-2.4,1.2-2.7,1.4c-0.1,0.1-0.3,0.3-0.5,0.7c-0.3,0.7-0.5,1-0.5,1.1c-0.9,0.6-1.5,1-1.6,1.2c-0.1,0.2-0.7,1.2-1.7,3
		c-0.5,1.2-0.8,2.2-1,2.8c-0.2,0.7-0.3,1.8-0.3,3.4l0,0.1c0.5,0.2,0.9,0.5,1.1,0.9c-0.5,0.4-0.7,0.7-0.7,1.1c0,0.8,0.3,1.6,0.8,2.5
		c0.1,0.2,0.2,0.3,0.2,0.3c0.5,0.3,0.7,0.5,0.7,0.5c0.1,0.1,0.2,0.3,0.3,0.5c0,0.2,0.1,0.5,0.3,0.9c0.6,0.4,1.1,0.6,1.3,0.7
		c1.4,0.9,2.3,1.4,2.8,1.5c0.9,0.1,1.3,0.2,1.4,0.2c0.2,0.1,0.4,0.3,0.7,0.7c0.5,0,1.8,0.2,3.9,0.6l1.1-0.1h2.5l2.5-0.5
		c2.1-0.1,3.2-0.2,3.4-0.2s0.7-0.3,1.7-0.8l1.8-0.8l1.9-0.9c1-0.3,2.2-1.2,3.4-2.7c0.4-0.6,1-1.9,1.8-3.9c0.3-0.7,0.5-1.1,0.5-1.2
		c0.1-0.4,0.1-1.1,0.2-2.1c-0.6-0.4-0.9-0.7-1-1.1l0.7-0.8V50z M418.2,55.4c0,0.3,0,0.5-0.1,0.7c-0.1,0.1-0.4,0.5-1,1.1l-0.9,1.8
		c-0.7,1.2-1.2,1.9-1.3,2.1c-0.1,0.1-0.6,0.3-1.5,0.6c-1.4,0.9-2.2,1.4-2.4,1.5c-0.8,0.2-1.5,0.3-1.9,0.4c-0.7,0.2-1.3,0.2-1.8,0.2
		c-0.3,0-0.7-0.1-1.2-0.2l-1.1-0.2h-2.1c-0.8,0-1.7-0.2-2.5-0.6c-1.9-1-3-1.5-3.1-1.5c-0.2,0-0.4,0.1-0.6,0.4
		c-0.5,0-0.9-0.2-0.9-0.5c0.2-0.5,0.4-0.8,0.4-1c0-0.1,0-0.2,0-0.2c-1.1-1.8-1.7-2.8-1.8-3.1c-0.1-0.4-0.3-1-0.5-1.8
		c-0.2,0-0.5,0.1-0.7,0.4l-0.3-0.3v-0.4c0.8-0.4,1.2-0.8,1.2-1c0-0.1-0.3-0.4-0.9-0.9c-0.2-0.5-0.3-0.7-0.3-0.8
		c0.8-0.3,1.2-0.8,1.2-1.3c0-0.1,0-0.3,0-0.5c0.4-0.4,0.6-1,0.9-1.7l0.7-1.2c0.1-0.2,0.2-0.6,0.2-1.2l0.3-0.2l4.2-3.6l0.2-0.3
		l1.5-0.8c0.2-0.1,0.5-0.4,0.8-0.8l0.7,0.5c0.8-0.5,1.4-0.8,1.8-0.8c0.4,0,1.2-0.1,2.4-0.1c0.1,0,0.5,0.1,1.2,0.3
		c0.6-0.2,0.9-0.4,1.1-0.4c0.5,0,0.9,0.4,1.1,1.2c0.8,0.3,1.4,0.6,1.8,0.7c0.4,0.2,0.6,0.3,0.7,0.3c0.1,0.1,0.3,0.4,0.8,1
		c0.8,1,1.3,1.7,1.6,2.2h0.8l0.1,0.1c0,0.7,0.1,1.2,0.1,1.4l0.6,1.8c0.3,1,0.5,1.7,0.7,2.1c-0.2,0.7-0.4,1.6-0.4,2.6l-0.1,0.7v0
		C417.7,54.4,417.8,54.8,418.2,55.4z"/>
	<path d="M467.2,61c0-0.2,0-0.4,0-0.7c0-0.2,0-0.6,0.1-1.2c-0.1-0.2-0.2-0.3-0.4-0.3c-0.1,0-0.2,0-0.3,0v-0.7l0.7-0.6
		c-0.2-1.5-0.2-2.4-0.2-2.6c0,0,0-0.1,0-0.1c0.1-0.5,0.1-0.8,0.1-0.9c0-0.2,0-0.4-0.1-0.6c-0.3-1-0.5-1.6-0.5-1.8
		c0-0.3,0-0.5,0.1-0.6c0.4-0.7,0.6-1.2,0.6-1.4v-0.5v-3.7l-0.3-1.1c0-1-0.1-1.7-0.2-2.1h-0.7c-0.1-0.2-0.2-0.4-0.2-0.6
		c0-0.3,0.2-0.5,0.5-0.5l-0.1-0.8c-0.2-0.2-0.7-0.6-1.5-1l-1.2-0.4l-1.3-0.5l-1.1,0.1l-1.9,0.1l-1.1,0.3c-0.8-0.1-1.1-0.2-1.2-0.2
		c-0.3,0-1.2,0.5-2.7,1.4c-0.7,0.3-1.2,0.6-1.5,0.9c-0.5,0.6-0.8,0.9-0.9,0.9c-0.3,0-0.5-0.1-0.5-0.4c-0.4-1.4-0.7-2.1-0.8-2.3
		c-0.5-0.8-1.1-1.1-1.8-1.1c0,0-0.4,0.1-0.9,0.2c-0.6,0-1.1,0.2-1.6,0.5v1h-1c0-0.9-0.2-1.4-0.7-1.4c-0.1,0-0.2,0-0.2,0
		c-0.6,0.3-1.3,0.6-2.3,0.8c-0.6,0.1-1.4,0.5-2.4,1c-0.3,0.4-0.5,0.6-0.5,0.6c-0.2,0.2-0.5,0.3-1,0.3c-0.4,0.6-0.8,1-0.9,1.1
		c-0.1,0.1-0.6,0.2-1.3,0.4l-0.1-0.1c0.1-0.6,0.1-1.1,0.1-1.6c0-0.1-0.1-0.5-0.2-1.1c0-0.2-0.1-0.5-0.2-1.1
		c-0.3-0.1-0.4-0.3-0.6-0.4c-0.3-0.3-0.4-0.4-0.5-0.4c0,0-0.3,0.1-0.7,0.4c-1.2,0.7-2.1,1.3-2.7,1.8c-0.3,0.3-0.6,0.7-0.7,1.2
		c0.3,0.2,0.5,0.3,0.8,0.3c0.3,0.9,0.4,1.6,0.5,2.1c0.1,1.3,0.2,2.1,0.2,2.2c0.3,0.5,0.5,1.2,0.5,2c0,0.2,0,0.5,0.1,1.1l-0.2,0.2
		h-0.3c-0.1,1.5-0.2,2.4-0.2,2.9c0,0.4,0.1,0.9,0.3,1.6h0.6c0,0.6,0,0.9-0.1,0.9c-0.6,1-0.9,1.6-0.9,1.8c0,0.3,0,0.6,0.1,1
		c0.5,0.2,0.7,0.4,0.7,0.6c0,0,0,0.1,0,0.1c-0.5,0.6-0.7,1-0.7,1.1L432,60v1.8l0,1.9l-0.1,1.3c0,0,0,0.1,0,0.3
		c0.4,0.1,0.7,0.1,0.9,0.1c0.3,0,0.6-0.1,0.8-0.2c1.4-0.8,2.4-1.4,2.9-1.5c-0.1-0.7-0.2-1.7-0.2-2.8c0-0.8-0.1-1.6-0.1-2.5
		c0-0.2,0-0.3,0-0.4l0.1-1.2c0-1.1,0-1.7-0.1-1.9c0-0.2-0.3-0.6-0.9-1.4l0.9-0.5c0-0.6,0.1-1.3,0.1-1.9v0l-0.2-1.3l0.2-1.2V47
		c0-0.1,0.1-0.4,0.3-0.9c0.4-0.9,0.8-1.8,1.4-2.6c0.6-0.1,1-0.1,1.2-0.1c0.1,0,0.8-0.3,2-0.7l1.7-0.4c0.1,0,0.4-0.2,0.8-0.5l0.7,0.8
		v0.2l1-0.2h0.1c0.6,0,1,0.2,1.3,0.6c0.2,0.3,0.4,1.1,0.7,2.4c0,2,0,3.3,0.1,3.8c0.8,0.1,1.1,0.4,1.1,0.8c0,0.4-0.4,0.9-1.1,1.4
		c0,0.2-0.1,0.8-0.1,1.8l0,0.6l0.4,0.9l0.5,1.3c0.1,0.2,0.2,0.6,0.2,0.9l-0.6,0.6h-0.1c-0.1,0.5-0.2,1.2-0.2,2.1
		c0,1.4,0,2.4-0.1,3.1c-0.1,0.6-0.1,1.1-0.1,1.4v0c0,0.3,0.1,0.6,0.3,0.9c0.1,0,0.2,0,0.2,0c0.1,0,0.9-0.3,2.3-0.8
		c0.8-0.5,1.2-0.8,1.4-0.9c0.4-0.3,0.6-0.6,0.6-0.9c0-1.5-0.2-2.9-0.6-4.3h-0.1c0-0.1,0-0.5,0.1-1.1v-0.7c0-0.2-0.1-0.4-0.2-0.6
		c-0.5-0.7-0.7-1.1-0.8-1.3l0.2-0.2l0.9,0.1c0.1-0.5,0.1-0.9,0.1-1.2c0-0.7,0-1.7-0.1-2.8c0-0.3-0.1-1-0.1-2
		c-0.5-0.3-0.8-0.6-0.8-0.8c0-0.3,0.3-0.6,0.9-0.8v-2.5c0.3-0.4,0.6-0.9,1-1.5c0.3-0.4,0.8-0.7,1.4-1.1l0.6-0.6l0.6-0.2l1.3-0.7
		c0.4-0.2,0.9-0.2,1.4-0.2c1.1,0,1.7,0.2,2,0.5c0.8,1.2,1.5,2,1.9,2.5c0.2,0.5,0.4,1.7,0.7,3.6c0,0.1,0.3,0.4,0.8,0.8
		c-0.1,0.9-0.4,1.7-0.8,2.3l1.9,1.5l-0.6,0.4l-1.3,0.7c0,0,0,0.1,0.1,0.1c0.5,0.6,0.7,1,0.7,1.2c0,0.2-0.2,0.8-0.7,1.6l-0.1,1.4
		c-0.2,1.6-0.3,2.4-0.3,2.5c0,0.1,0,0.2,0,0.3c0.1,1,0.2,1.6,0.2,1.7c0,0.2,0,0.4-0.1,0.6c-0.2,1-0.4,1.7-0.4,2.1
		c0,0.4,0,0.9,0.1,1.5c0.4,0.1,0.7,0.1,0.9,0.1c0.2,0,0.9-0.4,2.1-1.3c1-0.4,1.7-0.8,2.3-1.3C467.3,62.1,467.2,61.4,467.2,61z"/>
</g>
</svg>
